<?xml version="1.0" encoding="UTF-8"?>
<svg width="30px" height="30px" viewBox="0 0 30 30" version="1.1" xmlns="http://www.w3.org/2000/svg" xmlns:xlink="http://www.w3.org/1999/xlink">
    <!-- Generator: Sketch 57.1 (83088) - https://sketch.com -->
    <title>Icon/App/Linkedin Copy</title>
    <desc>Created with Sketch.</desc>
    <g id="Symbols" stroke="none" stroke-width="1" fill="none" fill-rule="evenodd">
        <g id="Footer" transform="translate(-1219.000000, -5.000000)" fill="#4D4D4D" fill-rule="nonzero">
            <g id="Icon/App/Linkedin-Copy" transform="translate(1219.000000, 5.000000)">
                <path d="M15,0.714285714 C7.14285714,0.714285714 0.714285714,7.14285714 0.714285714,15 C0.714285714,22.8571429 7.14285714,29.2857143 15,29.2857143 C22.8571429,29.2857143 29.2857143,22.8571429 29.2857143,15 C29.2857143,7.14285714 22.8571429,0.714285714 15,0.714285714 Z M18.9285714,13.9285714 C18.9285714,13.9285714 18.5714286,12.8571429 18.3928571,12.5 C21.4285714,11.0714286 23.3928571,9.46428571 24.1071429,8.57142857 C25.3571429,10.1785714 26.0714286,12.1428571 26.25,14.2857143 C24.8214286,13.9285714 21.6071429,13.3928571 18.9285714,13.9285714 Z M16.9642857,9.82142857 C15.5357143,7.32142857 13.9285714,5.17857143 13.2142857,3.92857143 C16.6071429,3.03571429 19.6428571,4.10714286 21.9642857,6.25 C21.25,7.14285714 19.8214286,8.57142857 16.9642857,9.82142857 Z M9.82142857,5.17857143 C10.5357143,6.07142857 11.9642857,8.21428571 13.3928571,10.8928571 C9.46428571,11.7857143 5.89285714,11.9642857 4.28571429,11.9642857 C5,9.10714286 7.14285714,6.60714286 9.82142857,5.17857143 Z M15,13.75 C15.1785714,14.1071429 15.3571429,14.4642857 15.5357143,14.6428571 C10.5357143,16.25 7.32142857,20.3571429 6.25,21.9642857 C4.82142857,20 3.92857143,17.6785714 3.92857143,15.3571429 C5.53571429,15.1785714 10.1785714,15 15,13.75 Z M16.7857143,17.6785714 C18.0357143,21.25 18.75,24.1071429 18.9285714,25.5357143 C15.1785714,26.7857143 10.8928571,26.0714286 8.57142857,24.1071429 C9.28571429,22.8571429 11.6071429,19.6428571 16.7857143,17.6785714 Z M21.9642857,23.75 C21.6071429,22.3214286 21.0714286,19.8214286 20,16.7857143 C21.9642857,16.4285714 24.8214286,16.7857143 25.8928571,17.1428571 C25.3571429,19.8214286 23.9285714,22.1428571 21.9642857,23.75 Z" id="Fill"></path>
            </g>
        </g>
    </g>
</svg>