<svg width="30px" height="30px" viewBox="0 0 30 30" version="1.1">
    <g stroke="none" stroke-width="1" fill="none" fill-rule="evenodd">
        <g id="linkedin" transform="translate(-1149.000000, -5.000000)" fill="#4D4D4D" fill-rule="nonzero">
            <g transform="translate(1149.000000, 5.000000)">
                <path d="M28.0357143,0.714285714 L1.96428571,0.714285714 C1.25,0.714285714 0.714285714,1.25 0.714285714,1.96428571 L0.714285714,28.2142857 C0.714285714,28.75 1.25,29.2857143 1.96428571,29.2857143 L28.2142857,29.2857143 C28.9285714,29.2857143 29.4642857,28.75 29.4642857,28.0357143 L29.4642857,1.96428571 C29.2857143,1.25 28.75,0.714285714 28.0357143,0.714285714 Z M9.10714286,25 L5,25 L5,11.4285714 L9.28571429,11.4285714 L9.28571429,25 L9.10714286,25 Z M7.14285714,9.64285714 C5.71428571,9.64285714 4.64285714,8.39285714 4.64285714,7.14285714 C4.64285714,5.71428571 5.71428571,4.64285714 7.14285714,4.64285714 C8.57142857,4.64285714 9.64285714,5.71428571 9.64285714,7.14285714 C9.46428571,8.39285714 8.39285714,9.64285714 7.14285714,9.64285714 Z M25,25 L20.7142857,25 L20.7142857,18.3928571 C20.7142857,16.7857143 20.7142857,14.8214286 18.5714286,14.8214286 C16.4285714,14.8214286 16.0714286,16.6071429 16.0714286,18.3928571 L16.0714286,25.1785714 L11.7857143,25.1785714 L11.7857143,11.4285714 L15.8928571,11.4285714 L15.8928571,13.2142857 L15.8928571,13.2142857 C16.4285714,12.1428571 17.8571429,11.0714286 19.8214286,11.0714286 C24.1071429,11.0714286 24.8214286,13.9285714 24.8214286,17.5 L24.8214286,25 L25,25 Z" id="Fill"></path>
            </g>
        </g>
    </g>
</svg>