<svg width="31px" height="25px" viewBox="0 0 31 25" version="1.1" xmlns="http://www.w3.org/2000/svg" xmlns:xlink="http://www.w3.org/1999/xlink">
    <title>Icon/App/Twitter</title>
    <g id="Symbols" stroke="none" stroke-width="1" fill="none" fill-rule="evenodd">
        <g id="Footer" transform="translate(-1289.000000, -7.000000)" fill="#4D4D4D" fill-rule="nonzero">
            <g id="Icon/App/Twitter" transform="translate(1289.000000, 7.000000)">
                <path d="M30.7539683,3.01388889 C29.6099206,3.5859127 28.465873,3.7765873 27.1311508,3.9672619 C28.465873,3.20456349 29.419246,2.06051587 29.8005952,0.535119048 C28.6565476,1.29781746 27.3218254,1.67916667 25.7964286,2.06051587 C24.652381,0.916468254 22.9363095,0.153769841 21.2202381,0.153769841 C17.9787698,0.153769841 15.1186508,3.01388889 15.1186508,6.44603175 C15.1186508,7.01805556 15.1186508,7.39940476 15.3093254,7.78075397 C10.1611111,7.59007937 5.39424603,5.11130952 2.34345238,1.29781746 C1.77142857,2.25119048 1.58075397,3.20456349 1.58075397,4.53928571 C1.58075397,6.63670635 2.72480159,8.54345238 4.44087302,9.6875 C3.4875,9.6875 2.53412698,9.30615079 1.58075397,8.92480159 C1.58075397,8.92480159 1.58075397,8.92480159 1.58075397,8.92480159 C1.58075397,11.9755952 3.6781746,14.4543651 6.53829365,15.0263889 C5.96626984,15.2170635 5.39424603,15.2170635 4.82222222,15.2170635 C4.44087302,15.2170635 4.05952381,15.2170635 3.6781746,15.0263889 C4.44087302,17.5051587 6.72896825,19.4119048 9.5890873,19.4119048 C7.49166667,21.1279762 4.82222222,22.0813492 1.77142857,22.0813492 C1.19940476,22.0813492 0.818055556,22.0813492 0.246031746,22.0813492 C3.10615079,23.7974206 6.34761905,24.9414683 9.7797619,24.9414683 C21.2202381,24.9414683 27.5125,15.4077381 27.5125,7.20873016 C27.5125,7.01805556 27.5125,6.63670635 27.5125,6.44603175 C28.8472222,5.49265873 29.9912698,4.34861111 30.7539683,3.01388889 Z" id="Fill"></path>
            </g>
        </g>
    </g>
</svg>